<svg width="56" height="54" viewBox="0 0 56 54" fill="none" xmlns="http://www.w3.org/2000/svg">
<path d="M4.382 38.228C5.40867 38.228 6.30933 38.4287 7.084 38.83C7.868 39.2313 8.47 39.8053 8.89 40.552C9.31933 41.2893 9.534 42.148 9.534 43.128C9.534 44.108 9.31933 44.9667 8.89 45.704C8.47 46.432 7.868 46.9967 7.084 47.398C6.30933 47.7993 5.40867 48 4.382 48H0.966V38.228H4.382ZM4.312 46.334C5.33867 46.334 6.132 46.054 6.692 45.494C7.252 44.934 7.532 44.1453 7.532 43.128C7.532 42.1107 7.252 41.3173 6.692 40.748C6.132 40.1693 5.33867 39.88 4.312 39.88H2.926V46.334H4.312ZM11.9952 39.32C11.6498 39.32 11.3605 39.2127 11.1272 38.998C10.9032 38.774 10.7912 38.4987 10.7912 38.172C10.7912 37.8453 10.9032 37.5747 11.1272 37.36C11.3605 37.136 11.6498 37.024 11.9952 37.024C12.3405 37.024 12.6252 37.136 12.8492 37.36C13.0825 37.5747 13.1992 37.8453 13.1992 38.172C13.1992 38.4987 13.0825 38.774 12.8492 38.998C12.6252 39.2127 12.3405 39.32 11.9952 39.32ZM12.9612 40.244V48H11.0012V40.244H12.9612ZM17.8656 48.126C17.231 48.126 16.6616 48.014 16.1576 47.79C15.6536 47.5567 15.2523 47.244 14.9536 46.852C14.6643 46.46 14.5056 46.026 14.4776 45.55H16.4516C16.489 45.8487 16.6336 46.096 16.8856 46.292C17.147 46.488 17.469 46.586 17.8516 46.586C18.225 46.586 18.5143 46.5113 18.7196 46.362C18.9343 46.2127 19.0416 46.0213 19.0416 45.788C19.0416 45.536 18.911 45.3493 18.6496 45.228C18.3976 45.0973 17.9916 44.9573 17.4316 44.808C16.853 44.668 16.377 44.5233 16.0036 44.374C15.6396 44.2247 15.3223 43.996 15.0516 43.688C14.7903 43.38 14.6596 42.9647 14.6596 42.442C14.6596 42.0127 14.781 41.6207 15.0236 41.266C15.2756 40.9113 15.6303 40.6313 16.0876 40.426C16.5543 40.2207 17.1003 40.118 17.7256 40.118C18.6496 40.118 19.387 40.3513 19.9376 40.818C20.4883 41.2753 20.7916 41.896 20.8476 42.68H18.9716C18.9436 42.372 18.813 42.1293 18.5796 41.952C18.3556 41.7653 18.0523 41.672 17.6696 41.672C17.315 41.672 17.0396 41.7373 16.8436 41.868C16.657 41.9987 16.5636 42.1807 16.5636 42.414C16.5636 42.6753 16.6943 42.876 16.9556 43.016C17.217 43.1467 17.623 43.282 18.1736 43.422C18.7336 43.562 19.1956 43.7067 19.5596 43.856C19.9236 44.0053 20.2363 44.2387 20.4976 44.556C20.7683 44.864 20.9083 45.2747 20.9176 45.788C20.9176 46.236 20.7916 46.6373 20.5396 46.992C20.297 47.3467 19.9423 47.6267 19.4756 47.832C19.0183 48.028 18.4816 48.126 17.8656 48.126ZM24.4865 37.64V48H22.5265V37.64H24.4865ZM27.417 39.32C27.0717 39.32 26.7824 39.2127 26.549 38.998C26.325 38.774 26.213 38.4987 26.213 38.172C26.213 37.8453 26.325 37.5747 26.549 37.36C26.7824 37.136 27.0717 37.024 27.417 37.024C27.7624 37.024 28.047 37.136 28.271 37.36C28.5044 37.5747 28.621 37.8453 28.621 38.172C28.621 38.4987 28.5044 38.774 28.271 38.998C28.047 39.2127 27.7624 39.32 27.417 39.32ZM28.383 40.244V48H26.423V40.244H28.383ZM34.9115 48L32.2795 44.696V48H30.3195V37.64H32.2795V43.534L34.8835 40.244H37.4315L34.0155 44.136L37.4595 48H34.9115ZM45.7053 43.954C45.7053 44.234 45.6866 44.486 45.6493 44.71H39.9793C40.026 45.27 40.222 45.7087 40.5673 46.026C40.9126 46.3433 41.3373 46.502 41.8413 46.502C42.5693 46.502 43.0873 46.1893 43.3953 45.564H45.5093C45.2853 46.3107 44.856 46.9267 44.2213 47.412C43.5866 47.888 42.8073 48.126 41.8833 48.126C41.1366 48.126 40.4646 47.9627 39.8673 47.636C39.2793 47.3 38.8173 46.8287 38.4813 46.222C38.1546 45.6153 37.9913 44.9153 37.9913 44.122C37.9913 43.3193 38.1546 42.6147 38.4813 42.008C38.808 41.4013 39.2653 40.9347 39.8533 40.608C40.4413 40.2813 41.118 40.118 41.8833 40.118C42.6206 40.118 43.2786 40.2767 43.8573 40.594C44.4453 40.9113 44.898 41.364 45.2153 41.952C45.542 42.5307 45.7053 43.198 45.7053 43.954ZM43.6753 43.394C43.666 42.89 43.484 42.4887 43.1293 42.19C42.7746 41.882 42.3406 41.728 41.8273 41.728C41.342 41.728 40.9313 41.8773 40.5953 42.176C40.2686 42.4653 40.068 42.8713 39.9933 43.394H43.6753ZM46.6319 44.094C46.6319 43.31 46.7859 42.6147 47.0939 42.008C47.4113 41.4013 47.8406 40.9347 48.3819 40.608C48.9233 40.2813 49.5253 40.118 50.1879 40.118C50.6919 40.118 51.1726 40.23 51.6299 40.454C52.0873 40.6687 52.4513 40.958 52.7219 41.322V37.64H54.7099V48H52.7219V46.852C52.4793 47.2347 52.1386 47.5427 51.6999 47.776C51.2613 48.0093 50.7526 48.126 50.1739 48.126C49.5206 48.126 48.9233 47.958 48.3819 47.622C47.8406 47.286 47.4113 46.8147 47.0939 46.208C46.7859 45.592 46.6319 44.8873 46.6319 44.094ZM52.7359 44.122C52.7359 43.646 52.6426 43.24 52.4559 42.904C52.2693 42.5587 52.0173 42.2973 51.6999 42.12C51.3826 41.9333 51.0419 41.84 50.6779 41.84C50.3139 41.84 49.9779 41.9287 49.6699 42.106C49.3619 42.2833 49.1099 42.5447 48.9139 42.89C48.7273 43.226 48.6339 43.6273 48.6339 44.094C48.6339 44.5607 48.7273 44.9713 48.9139 45.326C49.1099 45.6713 49.3619 45.9373 49.6699 46.124C49.9873 46.3107 50.3233 46.404 50.6779 46.404C51.0419 46.404 51.3826 46.3153 51.6999 46.138C52.0173 45.9513 52.2693 45.69 52.4559 45.354C52.6426 45.0087 52.7359 44.598 52.7359 44.122Z" fill="white"/>
<path d="M39 2.54248L16 25.5425" stroke="white" stroke-width="6" stroke-linejoin="round"/>
<path d="M16 2.54248L39 25.5425" stroke="white" stroke-width="6" stroke-linejoin="round"/>
</svg>
