<svg width="43" height="59" viewBox="0 0 43 59" fill="none" xmlns="http://www.w3.org/2000/svg">
<path d="M9.072 43.228V53H7.112V48.842H2.926V53H0.966V43.228H2.926V47.246H7.112V43.228H9.072ZM14.4452 53.126C13.6985 53.126 13.0265 52.9627 12.4292 52.636C11.8318 52.3 11.3605 51.8287 11.0152 51.222C10.6792 50.6153 10.5112 49.9153 10.5112 49.122C10.5112 48.3287 10.6838 47.6287 11.0292 47.022C11.3838 46.4153 11.8645 45.9487 12.4712 45.622C13.0778 45.286 13.7545 45.118 14.5012 45.118C15.2478 45.118 15.9245 45.286 16.5312 45.622C17.1378 45.9487 17.6138 46.4153 17.9592 47.022C18.3138 47.6287 18.4912 48.3287 18.4912 49.122C18.4912 49.9153 18.3092 50.6153 17.9452 51.222C17.5905 51.8287 17.1052 52.3 16.4892 52.636C15.8825 52.9627 15.2012 53.126 14.4452 53.126ZM14.4452 51.418C14.7998 51.418 15.1312 51.334 15.4392 51.166C15.7565 50.9887 16.0085 50.7273 16.1952 50.382C16.3818 50.0367 16.4752 49.6167 16.4752 49.122C16.4752 48.3847 16.2792 47.82 15.8872 47.428C15.5045 47.0267 15.0332 46.826 14.4732 46.826C13.9132 46.826 13.4418 47.0267 13.0592 47.428C12.6858 47.82 12.4992 48.3847 12.4992 49.122C12.4992 49.8593 12.6812 50.4287 13.0452 50.83C13.4185 51.222 13.8852 51.418 14.4452 51.418ZM29.5609 45.132C30.5129 45.132 31.2782 45.426 31.8569 46.014C32.4449 46.5927 32.7389 47.4047 32.7389 48.45V53H30.7789V48.716C30.7789 48.1093 30.6249 47.6473 30.3169 47.33C30.0089 47.0033 29.5889 46.84 29.0569 46.84C28.5249 46.84 28.1002 47.0033 27.7829 47.33C27.4749 47.6473 27.3209 48.1093 27.3209 48.716V53H25.3609V48.716C25.3609 48.1093 25.2069 47.6473 24.8989 47.33C24.5909 47.0033 24.1709 46.84 23.6389 46.84C23.0976 46.84 22.6682 47.0033 22.3509 47.33C22.0429 47.6473 21.8889 48.1093 21.8889 48.716V53H19.9289V45.244H21.8889V46.182C22.1409 45.8553 22.4629 45.5987 22.8549 45.412C23.2562 45.2253 23.6949 45.132 24.1709 45.132C24.7776 45.132 25.3189 45.2627 25.7949 45.524C26.2709 45.776 26.6396 46.14 26.9009 46.616C27.1529 46.168 27.5169 45.8087 27.9929 45.538C28.4782 45.2673 29.0009 45.132 29.5609 45.132ZM41.8088 48.954C41.8088 49.234 41.7901 49.486 41.7528 49.71H36.0828C36.1295 50.27 36.3255 50.7087 36.6708 51.026C37.0161 51.3433 37.4408 51.502 37.9448 51.502C38.6728 51.502 39.1908 51.1893 39.4988 50.564H41.6128C41.3888 51.3107 40.9595 51.9267 40.3248 52.412C39.6901 52.888 38.9108 53.126 37.9868 53.126C37.2401 53.126 36.5681 52.9627 35.9708 52.636C35.3828 52.3 34.9208 51.8287 34.5848 51.222C34.2581 50.6153 34.0948 49.9153 34.0948 49.122C34.0948 48.3193 34.2581 47.6147 34.5848 47.008C34.9115 46.4013 35.3688 45.9347 35.9568 45.608C36.5448 45.2813 37.2215 45.118 37.9868 45.118C38.7241 45.118 39.3821 45.2767 39.9608 45.594C40.5488 45.9113 41.0015 46.364 41.3188 46.952C41.6455 47.5307 41.8088 48.198 41.8088 48.954ZM39.7788 48.394C39.7695 47.89 39.5875 47.4887 39.2328 47.19C38.8781 46.882 38.4441 46.728 37.9308 46.728C37.4455 46.728 37.0348 46.8773 36.6988 47.176C36.3721 47.4653 36.1715 47.8713 36.0968 48.394H39.7788Z" fill="white"/>
<path d="M20.5601 -3.55689e-07L36.7931 12.556L36.7931 34L25.9894 34L25.9894 21.5604L15.9417 21.5604L15.9417 34L5.13793 34L5.13794 12.556L20.5601 -3.55689e-07Z" fill="white"/>
</svg>
