<svg width="44" height="68" viewBox="0 0 44 68" fill="none" xmlns="http://www.w3.org/2000/svg">
<path fill-rule="evenodd" clip-rule="evenodd" d="M21.0663 15.6971C21.1972 15.828 21.3237 15.9618 21.4456 16.0982L21.717 15.8268L21.7473 15.8571C21.9416 15.6227 22.1487 15.3952 22.3683 15.1755C26.1811 11.3628 32.3587 11.3586 36.1663 15.1663C39.974 18.974 39.9699 25.1516 36.1571 28.9643C35.9375 29.184 35.71 29.391 35.4755 29.5854L35.5058 29.6156L35.2453 29.8761L35.2453 29.8761L21.438 43.6834L7.90935 30.1548L7.9397 30.1245C7.70553 29.9304 7.47831 29.7237 7.25897 29.5044C3.45129 25.6967 3.45543 19.5191 7.26821 15.7063C11.081 11.8935 17.2586 11.8894 21.0663 15.6971Z" fill="white"/>
<path d="M5.9338 60.4461H9.1538V62.0001H3.9738V52.2281H5.9338V60.4461ZM11.3936 53.3201C11.0483 53.3201 10.7589 53.2128 10.5256 52.9981C10.3016 52.7741 10.1896 52.4988 10.1896 52.1721C10.1896 51.8455 10.3016 51.5748 10.5256 51.3601C10.7589 51.1361 11.0483 51.0241 11.3936 51.0241C11.7389 51.0241 12.0236 51.1361 12.2476 51.3601C12.4809 51.5748 12.5976 51.8455 12.5976 52.1721C12.5976 52.4988 12.4809 52.7741 12.2476 52.9981C12.0236 53.2128 11.7389 53.3201 11.3936 53.3201ZM12.3596 54.2441V62.0001H10.3996V54.2441H12.3596ZM18.8881 62.0001L16.2561 58.6961V62.0001H14.2961V51.6401H16.2561V57.5341L18.8601 54.2441H21.4081L17.9921 58.1361L21.4361 62.0001H18.8881ZM29.6819 57.9541C29.6819 58.2341 29.6632 58.4861 29.6259 58.7101H23.9559C24.0025 59.2701 24.1985 59.7088 24.5438 60.0261C24.8892 60.3435 25.3139 60.5021 25.8179 60.5021C26.5459 60.5021 27.0639 60.1895 27.3719 59.5641H29.4859C29.2619 60.3108 28.8325 60.9268 28.1979 61.4121C27.5632 61.8881 26.7839 62.1261 25.8599 62.1261C25.1132 62.1261 24.4412 61.9628 23.8438 61.6361C23.2558 61.3001 22.7938 60.8288 22.4578 60.2221C22.1312 59.6155 21.9678 58.9155 21.9678 58.1221C21.9678 57.3195 22.1312 56.6148 22.4578 56.0081C22.7845 55.4015 23.2418 54.9348 23.8298 54.6081C24.4179 54.2815 25.0945 54.1181 25.8599 54.1181C26.5972 54.1181 27.2552 54.2768 27.8339 54.5941C28.4219 54.9115 28.8745 55.3641 29.1919 55.9521C29.5185 56.5308 29.6819 57.1981 29.6819 57.9541ZM27.6518 57.3941C27.6425 56.8901 27.4605 56.4888 27.1058 56.1901C26.7512 55.8821 26.3172 55.7281 25.8038 55.7281C25.3185 55.7281 24.9079 55.8775 24.5719 56.1761C24.2452 56.4655 24.0445 56.8715 23.9699 57.3941H27.6518ZM30.6085 58.0941C30.6085 57.3101 30.7625 56.6148 31.0705 56.0081C31.3878 55.4015 31.8171 54.9348 32.3585 54.6081C32.8998 54.2815 33.5018 54.1181 34.1645 54.1181C34.6685 54.1181 35.1491 54.2301 35.6065 54.4541C36.0638 54.6688 36.4278 54.9581 36.6985 55.3221V51.6401H38.6865V62.0001H36.6985V60.8521C36.4558 61.2348 36.1151 61.5428 35.6765 61.7761C35.2378 62.0095 34.7291 62.1261 34.1505 62.1261C33.4971 62.1261 32.8998 61.9581 32.3585 61.6221C31.8171 61.2861 31.3878 60.8148 31.0705 60.2081C30.7625 59.5921 30.6085 58.8875 30.6085 58.0941ZM36.7125 58.1221C36.7125 57.6461 36.6191 57.2401 36.4325 56.9041C36.2458 56.5588 35.9938 56.2975 35.6765 56.1201C35.3591 55.9335 35.0185 55.8401 34.6545 55.8401C34.2905 55.8401 33.9545 55.9288 33.6465 56.1061C33.3385 56.2835 33.0865 56.5448 32.8905 56.8901C32.7038 57.2261 32.6105 57.6275 32.6105 58.0941C32.6105 58.5608 32.7038 58.9715 32.8905 59.3261C33.0865 59.6715 33.3385 59.9375 33.6465 60.1241C33.9638 60.3108 34.2998 60.4041 34.6545 60.4041C35.0185 60.4041 35.3591 60.3155 35.6765 60.1381C35.9938 59.9515 36.2458 59.6901 36.4325 59.3541C36.6191 59.0088 36.7125 58.5981 36.7125 58.1221Z" fill="white"/>
</svg>
